<?xml version="1.0" encoding="UTF-8" standalone="no"?>
<!-- Created with Inkscape (http://www.inkscape.org/) -->

<svg
   version="1.1"
   id="svg13527"
   width="166"
   height="97"
   viewBox="0 0 166 97"
   xmlns="http://www.w3.org/2000/svg"
   xmlns:svg="http://www.w3.org/2000/svg">
<title>N22: Whale sanctuary green color</title>
  <defs
     id="defs13531" />
  <g
     id="g13533">
    <path
       style="fill:#008e00;fill-opacity:1"
       d="M 98.995776,77.95072 C 96.964884,78.108173 77.195943,78.45086 73.221479,78.275311 51.51745,77.316665 18.035302,65.008401 18.005577,48.380272 18.00251,46.664421 18.9,42.443299 20,39 23.262994,28.78594 22.880237,26.773337 16.95115,22.968653 12.115751,19.865786 8,14.151 8,10.539838 8,8.6444148 8.3878543,8.6320867 11.840952,10.417753 c 2.17937,1.126996 11.282943,-0.6470486 14.690395,3.525785 3.708364,4.541336 -2.291734,3.995334 2.624186,0 4.688415,-3.810432 14.937754,-0.02851 17.279367,-0.918787 3.20095,-1.216999 3.492225,0.602974 0.594323,3.713507 -4.085386,4.385147 -6.892695,7.248604 -12.010873,8.430021 -6.11149,1.410701 -5.356137,3.785355 -4.605324,10.662237 0.482169,4.416298 0.728313,9.462336 4.559025,11.512471 6.330574,3.38802 16.842061,-2.396442 30.064439,-6.366638 12.801076,-3.843694 23.448484,-7.430279 32.87146,-7.582607 12.54787,-0.202843 26.62495,-0.649775 39.03926,2.997152 4.565,1.341049 12.71249,4.59641 17.42873,7.186401 6.00993,3.300445 3.66268,15.798094 1.11001,20.863655 -10.46028,14.489591 -17.39341,12.664933 -32.52845,14.904786 -6.66176,2.905634 -8.48672,4.965417 -14.6426,6.774078 -4.16926,1.078081 -26.153321,4.463017 -26.610708,0.89686 C 81.49379,85.661715 99.239996,81.75663 98.995776,77.95072 Z"
       id="path14023" />
    <path
       style="fill:#008e00;stroke:#000000;stroke-width:1.00157"
       d="M 38.249008,13.943538 Z"
       id="path3292" />
  </g>
</svg>
