<?xml version="1.0" encoding="UTF-8" standalone="no"?>
<!-- Created with Inkscape (http://www.inkscape.org/) -->

<svg
   version="1.1"
   id="svg11829"
   width="140"
   height="146"
   viewBox="0 0 140 146"
   xmlns="http://www.w3.org/2000/svg"
   xmlns:svg="http://www.w3.org/2000/svg">
  <title>N22: Dolphin sanctuary green color</title>
  <defs
     id="defs11833" />
  <g
     id="g11835">
    <path
       style="fill:#008e00;fill-opacity:1"
       d="m 14,138.26127 c 0,-2.89535 5.346969,-12.35586 9.391264,-16.61617 4.829202,-5.08714 5.327255,-6.70289 3.492461,-11.33 C 25.43292,106.65636 23.3508,94.971428 22.510884,85.774567 21.231294,71.763393 30.194402,46.871519 33.456965,40.035716 35.007194,36.787637 35.393946,32.731415 31.912638,30.75 30.221544,29.7875 27.974389,29 26.91896,29 c -3.381399,0 -2.059113,-1.674759 2.782018,-3.523604 2.889156,-1.103379 7.69326,-1.844055 12.464789,-1.921767 6.161589,-0.100352 8.344278,-0.555605 10.576556,-2.205999 17.37877,-12.8486803 50.322177,-15.2630041 64.153957,-4.701652 3.34591,2.554791 5.15764,3.30532 6.91446,2.864388 2.52103,-0.632739 4.72807,1.381548 4.60618,3.175947 -0.10551,1.553232 -21.1059,10.2522 -29.243818,12.877085 l -7.743165,2.497556 0.03503,8.284612 c 0.03427,8.103199 -0.04111,8.365457 -3.442179,11.976619 C 83.613009,63.00537 82.53248,62.60223 82.861793,56.397644 83.37804,46.671074 77.266612,43.292933 69.5,49.011806 56.552971,57.95192 43.04929,73.498715 37.969815,88 c -2.427306,7.359399 -4.946685,18.65254 -4.958008,22.22432 -0.01196,3.77234 3.596018,5.13116 7.365729,6.77568 1.346843,0.58755 2.859618,1.67753 4.54966,3.72784 4.333702,5.25754 4.033701,8.22254 -0.486066,4.80396 -4.537853,-3.43226 -16.699244,0.88796 -25.39415,9.02102 C 16.271141,137.1493 14,138.8181 14,138.26127 Z"
       id="path12335" />
  </g>
</svg>
