<?xml version="1.0" encoding="UTF-8" standalone="no"?>
<!-- Created with Inkscape (http://www.inkscape.org/) -->

<svg
   version="1.1"
   id="svg13003"
   width="176"
   height="201"
   viewBox="0 0 176 201"
   xmlns="http://www.w3.org/2000/svg"
   xmlns:svg="http://www.w3.org/2000/svg">
  <title>N22: Coral sanctuary green color</title>
  <defs
     id="defs13007" />
  <g
     id="g13009">
    <path
       style="fill:#008e00;fill-opacity:1"
       d="m 73.390687,196.61207 c 0.68479,-9.71991 -5.774012,-16.6788 -8.908646,-24.80067 -8.67949,-2.46705 -19.524792,3.2541 -24.639518,-7.51137 -8.72213,0.9303 -9.292331,-11.52356 -18.862924,-9.74209 -11.2723266,2.35943 -14.920379,-9.82161 -10.931462,-18.31086 -1.3037681,-2.57439 3.455711,-12.58587 9.847466,-5.5181 2.416565,5.28931 9.927049,4.20991 4.381513,-1.11289 -4.973374,-3.66819 -1.850715,-10.58793 -7.922255,-13.18544 -2.847945,-1.15662 -1.040812,-12.20893 -7.9884058,-12.88458 -3.2170241,-6.828894 -1.7913668,-15.847875 5.2893078,-18.757172 10.752334,-5.734824 16.203169,6.041158 16.232172,14.522233 7.618626,1.259119 8.616646,6.218949 8.548152,14.056089 0.137199,8.9337 7.97431,7.94769 10.507996,14.39839 -1.013459,6.00374 0.931964,19.21986 8.330842,11.35478 1.344029,-6.86515 -7.764427,-11.00697 -3.26715,-18.1101 4.282312,-6.33605 -4.629221,-10.10866 -2.645196,-17.66957 C 47.975947,96.23779 48.216548,89.176433 42.33069,83.184739 42.301044,76.228317 41.526396,70.481958 35.923489,66.09699 34.280366,59.37302 28.609335,54.990089 30.165911,46.808594 26.303055,39.528148 35.575239,30.030051 41.472679,34.745595 c 4.804701,2.429326 13.564023,3.887629 13.778206,4.541008 1.282855,9.237402 0.438807,14.835009 6.321256,20.383226 -0.174731,12.120966 6.044001,-3.945686 8.809366,-6.380524 -3.31958,-9.584137 8.342162,-14.22134 7.340291,-23.784965 C 82.614468,24.188944 85.903215,20.499419 83.321096,15 79.185219,6.572639 91.090224,1.5239558 97.954545,5.0806781 c 7.828365,3.3083662 6.888125,13.2344069 9.956215,18.8528239 3.22725,8.652375 -5.75349,12.543678 -8.206421,18.58734 3.729071,8.691106 -3.886773,10.476225 -9.02871,14.509434 -0.164231,6.150639 -5.422546,18.126257 -9.057739,16.297432 -7.851653,2.232173 -2.318601,11.837977 -4.11744,15.204984 -8.168825,6.610254 4.84803,13.070918 7.210527,18.467308 4.700251,4.96793 -7.734959,10.743 -0.538115,13.1893 7.293055,0.65837 9.286871,-5.6922 7.743396,-12.08078 4.43461,-4.77569 -2.460816,-10.298838 -4.166258,-15.313065 -4.229664,-5.37159 0.155193,-10.136096 -0.414963,-15.737413 -1.86919,-1.615691 6.918414,-10.899865 12.737233,-6.773883 3.03438,6.019627 5.24758,11.123022 8.13351,17.062366 -1.8128,5.754821 2.90604,11.523925 5.64676,3.835126 C 115.99673,86.050964 115.79692,79.273371 121.5,79 c 3.78153,-5.575229 -4.4355,-14.775648 -4.68806,-12 -4.28731,-4.066492 -2.98321,-11.134541 -6.91689,-15.097748 -3.98952,-4.368142 5.45447,-10.907597 7.5436,-15.88544 -0.47173,-9.368521 9.93006,-13.122345 16.37,-8.826184 1.02008,3.726468 2.8047,10.646875 0.34998,14.809372 -3.65061,7.612886 9.91955,10.426703 7.73963,18.813131 3.05967,7.385384 8.30253,12.105376 16.46619,7.636843 6.52116,-0.355778 12.0872,0.879704 14.3364,7.550227 4.32238,10.743579 -8.50578,14.053145 -16.6238,12.967824 -8.62328,1.806295 -21.04117,3.436044 -22.61984,14.107785 -1.96432,6.40531 -9.85318,9.12556 -8.67066,16.92419 -0.39153,6.21942 -11.80889,6.00822 -13.20914,12.78348 2.94858,7.30345 -15.800593,11.23471 -5.35059,11.20929 5.56113,-4.77617 13.91757,-3.80395 18.6684,-6.55749 2.85941,-3.76386 10.32635,1.15242 10.06667,-6.47353 0.52283,-5.76564 9.02695,-9.60779 7.84066,-17.21027 -0.15809,-3.59053 1.50652,-7.18515 2.54871,-6.09061 2.46924,-4.93073 -1.72369,-11.97268 2.85153,-13.769162 6.3681,-2.612722 15.77222,-1.440075 16.15523,6.640642 -0.58093,6.8118 -3.06344,14.00912 0.55758,18.91549 -0.97122,7.01884 -10.13124,13.83353 -7.3636,21.78128 5.11318,3.42878 9.59602,10.35954 6.85488,15.6202 -2.57848,7.43834 -14.11806,6.64579 -16.74639,-0.69575 -4.75354,-4.71247 -5.71255,7.81223 -12.50546,5.41618 -6.46944,0.0641 -13.0716,6.92832 -19.65709,0.74325 -5.36217,-8.35775 -11.12333,1.26877 -7.94058,6.4308 -0.75767,5.85549 -7.11599,9.87525 -0.43174,14.93547 5.95908,5.19133 0.50532,16.99233 -8.330088,14.25786 -7.021724,-0.78825 -13.953777,2.05259 -21.090679,1.63655 -3.373287,0.20034 -3.928125,0.89149 -4.314166,-2.96161 z"
       id="path13493" />
  </g>
</svg>
