<?xml version="1.0" encoding="UTF-8" standalone="no"?>
<!-- Created with Inkscape (http://www.inkscape.org/) -->

<svg
   version="1.1"
   id="svg3819"
   width="473"
   height="600"
   viewBox="0 0 473 600"
   sodipodi:docname="N22_Penguin_gn.svg"
   inkscape:version="1.2.2 (732a01da63, 2022-12-09)"
   xmlns:inkscape="http://www.inkscape.org/namespaces/inkscape"
   xmlns:sodipodi="http://sodipodi.sourceforge.net/DTD/sodipodi-0.dtd"
   xmlns="http://www.w3.org/2000/svg"
   xmlns:svg="http://www.w3.org/2000/svg">
  <title>N22: Penguin sanctuary green color</title>
  <defs
     id="defs3823" />
  <sodipodi:namedview
     id="namedview3821"
     pagecolor="#ffffff"
     bordercolor="#000000"
     borderopacity="0.25"
     inkscape:showpageshadow="2"
     inkscape:pageopacity="0.0"
     inkscape:pagecheckerboard="0"
     inkscape:deskcolor="#d1d1d1"
     showgrid="false"
     inkscape:zoom="1.7116667"
     inkscape:cx="196.59202"
     inkscape:cy="299.70789"
     inkscape:window-width="2560"
     inkscape:window-height="1377"
     inkscape:window-x="-8"
     inkscape:window-y="-8"
     inkscape:window-maximized="1"
     inkscape:current-layer="g3825" />
  <g
     inkscape:groupmode="layer"
     inkscape:label="Image"
     id="g3825">
    <path
       style="fill:#008e00;fill-opacity:1"
       d="m 246.50507,581.0082 c -18.56318,-13.90731 -51.31183,-2.44794 -63.23044,-25.95619 -21.4305,-5.9707 -61.54789,17.24068 -72.36662,-2.45409 20.82909,-11.80776 48.54726,-27.44613 45.71678,-55.58951 -8.07862,-55.10244 -23.48297,-109.55479 -21.90033,-165.75705 -1.37534,-12.53964 4.36097,-58.3948 -5.43101,-25.12444 -17.86455,33.23902 -54.150267,51.01525 -74.904013,82.26956 -11.320542,9.23424 -19.478099,46.05054 -33.501502,38.55552 -4.379106,-29.34225 15.407149,-55.3185 26.976963,-80.73602 31.561499,-54.57971 79.642972,-97.16384 115.156732,-148.93672 21.45189,-31.21644 26.4266,-69.56472 25.77249,-106.53844 -1.92094,-36.159993 20.51043,-78.486271 60.3556,-80.333275 21.91417,-2.024842 42.1244,8.252398 61.7738,15.718965 12.59391,0.698995 25.91632,-0.852909 38.07254,1.198438 23.73955,14.67614 -20.62646,26.464793 -29.65155,36.884879 -22.75883,11.203018 -24.74827,39.772243 -26.14251,62.075583 1.31613,16.20354 5.08208,31.98453 10.53254,47.25215 9.07159,25.41096 22.80949,49.39982 37.68524,71.54784 33.80637,49.69374 77.47969,93.42591 101.7561,149.05883 12.50392,16.41947 -2.77216,53.49855 -20.17317,26.14826 -24.27223,-28.50715 -46.28637,-59.0663 -74.54753,-83.92 -8.75444,-6.58001 -20.99525,-35.26592 -18.2481,-8.71326 -2.66087,57.02506 -3.94426,116.79198 -30.611,168.71385 -0.81648,11.98967 -27.95991,40.83419 -6.79853,43.97609 11.93433,5.11824 47.31272,7.24198 36.96496,25.46071 -14.47717,-11.45941 -11.28637,15.04768 -25.85178,2.88431 -6.08183,12.8341 -18.57059,-5.82963 -18.35454,10.14966 -13.86724,4.29793 -25.58185,-1.4847 -39.05112,2.16435 z"
       id="path4309"
       sodipodi:nodetypes="ccccccccccccccccsccccccccccc" />
  </g>
</svg>
