<?xml version="1.0" encoding="UTF-8" standalone="no"?>
<!-- Created with Inkscape (http://www.inkscape.org/) -->

<svg
   width="33.063858mm"
   height="29.349306mm"
   viewBox="0 0 33.063858 29.349306"
   version="1.1"
   id="svg11821"
   xmlns="http://www.w3.org/2000/svg"
   xmlns:svg="http://www.w3.org/2000/svg">
  <title>N22: Bird sanctuary green color</title>
  <defs
     id="defs11818" />
  <g
     id="layer1"
     transform="translate(-56.344409,-85.674923)">
    <path
       style="fill:#008e00;fill-opacity:1;stroke-width:0.265;stroke-dasharray:none"
       d="m 75.971503,107.11074 c -1.403083,0.0256 -2.765831,-0.23795 -3.965877,-0.44145 -4.627318,-0.79385 -11.100841,-4.66776 -14.375487,-8.602649 -0.749822,-0.901003 -1.327342,-1.658893 -1.283377,-1.6842 0.04397,-0.02531 2.06407,0.06514 4.489122,0.200985 l 4.409186,0.246998 2.117443,-1.241372 c 2.820607,-1.653608 4.762474,-2.306113 7.358236,-2.472511 l 2.154467,-0.138109 -0.36853,-0.882017 c -0.823194,-1.970181 0.02943,-4.204642 2.145012,-5.621401 1.157589,-0.775212 1.48305,-0.870701 2.604267,-0.764081 1.58686,0.1509 2.628334,1.094209 3.294951,2.984386 0.438537,1.243459 0.575392,1.370362 2.639463,2.44753 2.831446,1.477636 2.948847,2.054365 0.36939,1.814629 -0.994156,-0.0924 -2.15817,-0.238117 -2.586699,-0.323823 -0.695709,-0.139142 -0.827805,-0.05378 -1.233578,0.797131 l -0.454435,0.95296 1.228341,1.508072 c 3.589772,4.407272 3.164155,7.898902 -1.154898,9.474432 -1.266034,0.49942 -1.727652,0.69069 -3.287773,1.32716 l 0.01543,6.68628 -1.080744,-0.0133 c -0.02287,-2.8369 -0.03908,-5.06644 -0.06129,-6.45446 -0.746976,0.0722 -0.991816,0.13318 -1.832788,0.18882 l 0.05858,7.92348 h -1.177672 c 1.3e-5,-2.62486 -0.02074,-5.28861 -0.02074,-7.91349 z"
       id="path11801" />
  </g>
</svg>
