<?xml version="1.0" encoding="UTF-8" standalone="no"?>
<!-- Created with Inkscape (http://www.inkscape.org/) -->

<svg
   width="50"
   height="28"
   version="1.1"
   id="svg4237"
   sodipodi:docname="N22_ESSA_gn.svg"
   inkscape:version="1.2.2 (732a01da63, 2022-12-09)"
   inkscape:dataloss="true"
   inkscape:export-filename="N22_ESSA_gn.svg"
   inkscape:export-xdpi="96"
   inkscape:export-ydpi="96"
   xmlns:inkscape="http://www.inkscape.org/namespaces/inkscape"
   xmlns:sodipodi="http://sodipodi.sourceforge.net/DTD/sodipodi-0.dtd"
   xmlns="http://www.w3.org/2000/svg"
   xmlns:svg="http://www.w3.org/2000/svg"
   xmlns:rdf="http://www.w3.org/1999/02/22-rdf-syntax-ns#"
   xmlns:cc="http://creativecommons.org/ns#"
   xmlns:dc="http://purl.org/dc/elements/1.1/">
  <sodipodi:namedview
     id="namedview11"
     pagecolor="#ffffff"
     bordercolor="#000000"
     borderopacity="0.25"
     inkscape:showpageshadow="2"
     inkscape:pageopacity="0.0"
     inkscape:pagecheckerboard="0"
     inkscape:deskcolor="#d1d1d1"
     showgrid="false"
     inkscape:zoom="24.12"
     inkscape:cx="21.662521"
     inkscape:cy="9.9917081"
     inkscape:window-width="2560"
     inkscape:window-height="1377"
     inkscape:window-x="-8"
     inkscape:window-y="-8"
     inkscape:window-maximized="1"
     inkscape:current-layer="svg4237" />
  <defs
     id="defs4241" />
  <title
     id="title4223">N22: Environmentally Sensitive Sea Area</title>
  <metadata
     id="metadata4225">
    <rdf:RDF>
      <cc:Work
         rdf:about="">
        <dc:format>image/svg+xml</dc:format>
        <dc:type
           rdf:resource="http://purl.org/dc/dcmitype/StillImage" />
        <dc:title>N22: Environmentally Sensitive Sea Area</dc:title>
        <cc:license
           rdf:resource="http://creativecommons.org/licenses/publicdomain/" />
      </cc:Work>
      <cc:License
         rdf:about="http://creativecommons.org/licenses/publicdomain/">
        <cc:permits
           rdf:resource="http://creativecommons.org/ns#Reproduction" />
        <cc:permits
           rdf:resource="http://creativecommons.org/ns#Distribution" />
        <cc:permits
           rdf:resource="http://creativecommons.org/ns#DerivativeWorks" />
      </cc:License>
    </rdf:RDF>
  </metadata>
  <g
     fill="#008000"
     id="g4235"
     transform="translate(0,-12)">
    <path
       d="m 6.7596,26.81 c -0.32535,1.5601 -0.69077,2.8867 -1.0499,4.4398 l 6.5205,0.03412 -0.44536,1.502 h -8.2066 l 2.9119,-13.324 c 2.3003,0.01344 5.8025,0.01034 8.103,0 l -0.37119,1.5406 -6.2074,0.02689 c -0.32054,1.4132 -0.62969,2.8285 -0.93815,4.2441 l 3.8061,0.01862 -0.39284,1.537"
       stroke-width="1.0564"
       id="path4227" />
    <path
       d="m 14.094,28.4 1.6875,-0.1582 -0.01758,0.4483 c -3e-6,0.498 0.11426,0.9536 0.34277,1.3667 0.22851,0.4131 0.60644,0.7324 1.1338,0.958 0.52734,0.2256 1.1543,0.3384 1.8809,0.3384 1.0312,0 1.8179,-0.2256 2.3599,-0.6768 0.54198,-0.4512 0.81298,-0.9668 0.81299,-1.5469 -10e-6,-0.4043 -0.14356,-0.7734 -0.43066,-1.1074 -0.29298,-0.3281 -1.0928,-0.7734 -2.3994,-1.3359 -1.0137,-0.4395 -1.7051,-0.7764 -2.0742,-1.0108 -0.58008,-0.3808 -1.0078,-0.7954 -1.2832,-1.2436 -0.27539,-0.4482 -0.41309,-0.9595 -0.41309,-1.5337 -3e-6,-0.6621 0.18164,-1.2598 0.54492,-1.793 0.36328,-0.5332 0.89502,-0.9404 1.5952,-1.2217 0.70019,-0.2812 1.4897,-0.4218 2.3687,-0.4218 1.0488,0 1.9336,0.1758 2.6543,0.5273 0.72069,0.3516 1.2436,0.8203 1.5688,1.4063 0.32518,0.5859 0.48778,1.1455 0.48779,1.6787 -1.2e-5,0.053 -0.0029,0.1406 -0.0088,0.2636 l -1.6611,0.1319 c -1.1e-5,-0.3633 -0.03224,-0.6475 -0.09668,-0.8526 -0.1172,-0.3574 -0.29884,-0.6591 -0.54492,-0.9052 -0.2461,-0.2461 -0.58448,-0.4439 -1.0151,-0.5933 -0.43067,-0.1494 -0.9126,-0.2241 -1.4458,-0.2241 -0.93751,0 -1.667,0.2109 -2.1885,0.6328 -0.39844,0.3223 -0.59766,0.75 -0.59766,1.2832 -5e-6,0.3164 0.08203,0.5991 0.24609,0.8481 0.16406,0.2491 0.45996,0.4937 0.8877,0.7339 0.30468,0.17 1.0283,0.5069 2.1709,1.0108 0.92577,0.4101 1.5644,0.7324 1.916,0.9668 0.46874,0.3105 0.82909,0.687 1.0811,1.1294 0.25194,0.4424 0.37792,0.9448 0.37793,1.5073 -1.1e-5,0.6973 -0.21241,1.3403 -0.63721,1.9292 -0.42482,0.5889 -1.0122,1.0444 -1.7622,1.3667 -0.75001,0.3223 -1.6084,0.4834 -2.5752,0.4834 -1.459,0 -2.6499,-0.3179 -3.5728,-0.9536 -0.92285,-0.6358 -1.3872,-1.7798 -1.3931,-3.4322 z"
       id="path4229" />
    <path
       d="m 26.117,28.4 1.6875,-0.1582 -0.01758,0.4483 c -3e-6,0.498 0.11426,0.9536 0.34277,1.3667 0.22851,0.4131 0.60644,0.7324 1.1338,0.958 0.52734,0.2256 1.1543,0.3384 1.8809,0.3384 1.0312,0 1.8179,-0.2256 2.3599,-0.6768 0.54198,-0.4512 0.81298,-0.9668 0.81299,-1.5469 -9e-6,-0.4043 -0.14356,-0.7734 -0.43066,-1.1074 -0.29298,-0.3281 -1.0928,-0.7734 -2.3994,-1.3359 -1.0137,-0.4395 -1.7051,-0.7764 -2.0742,-1.0108 -0.58008,-0.3808 -1.0078,-0.7954 -1.2832,-1.2436 -0.27539,-0.4482 -0.41309,-0.9595 -0.41309,-1.5337 -2e-6,-0.6621 0.18164,-1.2598 0.54492,-1.793 0.36328,-0.5332 0.89502,-0.9404 1.5952,-1.2217 0.70019,-0.2812 1.4897,-0.4218 2.3687,-0.4218 1.0488,0 1.9336,0.1758 2.6543,0.5273 0.72069,0.3516 1.2436,0.8203 1.5688,1.4063 0.32518,0.5859 0.48778,1.1455 0.48779,1.6787 -1.2e-5,0.053 -0.0029,0.1406 -0.0088,0.2636 l -1.6611,0.1319 c -10e-6,-0.3633 -0.03224,-0.6475 -0.09668,-0.8526 -0.1172,-0.3574 -0.29884,-0.6591 -0.54492,-0.9052 -0.2461,-0.2461 -0.58448,-0.4439 -1.0151,-0.5933 -0.43067,-0.1494 -0.91261,-0.2241 -1.4458,-0.2241 -0.93751,0 -1.667,0.2109 -2.1885,0.6328 -0.39844,0.3223 -0.59766,0.75 -0.59766,1.2832 -4e-6,0.3164 0.08203,0.5991 0.24609,0.8481 0.16406,0.2491 0.45996,0.4937 0.8877,0.7339 0.30468,0.17 1.0283,0.5069 2.1709,1.0108 0.92577,0.4101 1.5644,0.7324 1.916,0.9668 0.46874,0.3105 0.82909,0.687 1.0811,1.1294 0.25194,0.4424 0.37792,0.9448 0.37793,1.5073 -1.2e-5,0.6973 -0.21241,1.3403 -0.63721,1.9292 -0.42482,0.5889 -1.0122,1.0444 -1.7622,1.3667 -0.75001,0.3223 -1.6084,0.4834 -2.5752,0.4834 -1.459,0 -2.6499,-0.3179 -3.5728,-0.9536 -0.92285,-0.6358 -1.3872,-1.7798 -1.3931,-3.4322 z"
       id="path4231" />
    <path
       d="m 36.515,32.786 7.3037,-13.324 h 2.0303 l 2.127,13.324 h -1.6699 l -0.62402,-3.8354 h -5.2119 l -2.0654,3.8354 z m 4.6934,-5.2079 h 4.2627 l -0.50098,-3.3445 c -0.19337,-1.3269 -0.31348,-2.4328 -0.36035,-3.3175 -0.29298,0.76346 -0.72071,1.6693 -1.2832,2.7176 z"
       stroke-width="1.0169"
       id="path4233" />
  </g>
</svg>
