<?xml version="1.0" encoding="UTF-8" standalone="no"?>
<!-- Created with Inkscape (http://www.inkscape.org/) -->

<svg
   version="1.1"
   id="svg9965"
   width="419.82617"
   height="370.92249"
   viewBox="0 0 419.82617 370.92249"
   xmlns="http://www.w3.org/2000/svg"
   xmlns:svg="http://www.w3.org/2000/svg">
  <title>N22: Seaturtle sanctuary green color</title>
  <defs
     id="defs9969" />
  <g
     id="g9971"
     transform="translate(-2.1219015,0.99495477)">
    <path
       style="fill:#008e00;fill-opacity:1"
       d="m 192.64254,368.51086 c 13.38011,-27.40735 46.22936,-36.39698 63.38478,-60.8464 9.90095,-6.28758 21.05895,-29.88754 -0.36376,-19.77606 -27.51275,11.69495 -58.66506,11.80855 -87.87263,7.79031 -17.6706,-4.07758 -36.27049,-6.32289 -52.14516,-15.5208 -13.49301,-1.92521 -30.854845,-24.94303 -36.686218,-7.98151 -23.455258,4.56563 -54.62658,16.3204 -74.6570145,-1.23434 -4.43083066,-15.02401 5.1810498,-36.48032 20.8922395,-40.87988 12.183284,-3.38166 35.33716,4.46105 20.079609,-14.12224 C 40.647755,193.33046 18.322478,191.98877 2.1219015,185.20956 11.013519,172.86128 40.999328,177.05435 45.782479,154.91708 56.557239,141.00502 46.047289,135.07123 32.44659,140.0624 14.210196,140.36798 5.5395179,121.07625 2.2091392,105.52895 6.7504292,82.403268 36.194851,89.024569 53.108794,91.102731 65.804682,90.1713 81.986136,96.741644 86.944261,103.31527 110.83296,89.988234 135.30695,75.921338 163.3115,74.169325 196.61008,67.993206 231.70574,70.105574 263.41075,82.386943 278.62456,77.675534 250.8845,58.083003 246.14136,49.491183 231.15849,38.090606 216.5617,26.647559 202.20568,14.668984 187.77178,6.321615 196.85445,-4.4155146 210.25974,0.05534776 240.24662,-0.9754364 268.35191,12.725713 291.68725,30.426475 c 23.67047,20.109041 44.23566,51.452963 36.80634,83.716115 -4.0961,11.93536 -21.38694,11.58087 -6.70396,23.32299 8.39907,23.04592 31.37315,23.72054 51.83394,21.23743 17.69805,2.3432 43.05537,4.57788 48.3245,25.32708 -4.44399,21.52769 -33.86407,25.49376 -52.68279,25.49202 -18.56759,-6.81687 -34.13539,1.33602 -43.10042,18.41396 -8.67248,4.06602 -17.3181,16.58477 -1.78976,18.06389 11.32902,15.0469 5.95272,35.5553 -0.3561,51.47003 -11.85273,22.543 -29.80338,42.17197 -51.2304,55.92409 -24.13862,10.7347 -50.56983,18.51768 -77.2034,16.08629 z"
       id="path10455" />
  </g>
</svg>
